<?xml version="1.0" encoding="iso-8859-1"?>
<!-- Uploaded to: SVG Repo, www.svgrepo.com, Generator: SVG Repo Mixer Tools -->
<svg height="800px" width="800px" version="1.1" id="Layer_1" xmlns="http://www.w3.org/2000/svg" xmlns:xlink="http://www.w3.org/1999/xlink" 
	 viewBox="0 0 464.041 464.041" xml:space="preserve">
<g transform="translate(0 -1020.36)">
	<g shape-rendering="auto" image-rendering="auto" color-rendering="auto" color-interpolation="sRGB">
		<g>
			<path style="fill:#29A3EC;" d="M232.03,1226.759c0.032,0,0.064,0,0.096,0c62.655,0,113.227,50.656,113.227,113.322
				c0,62.699-50.623,113.449-113.322,113.449c-62.7,0-113.322-50.75-113.322-113.449c0-62.699,50.623-113.322,113.322-113.322
				H232.03z"/>
			<path style="fill:#5A3392;" d="M405.865,1036.179H56.74c-3.976,0.16-6.201,2.201-7.562,3.792l-48.063,79.938
				c-1.882,3.182-1.339,7.238,1.312,9.813l127.906,128.031c0.702,0.703,1.53,1.264,2.437,1.656
				c23.495-28.869,59.275-47.342,99.312-47.342c40.031,0,75.759,18.482,99.219,47.342c0.896-0.4,1.712-0.961,2.406-1.656
				l127.906-128.031c2.652-2.574,3.194-6.633,1.312-9.813l-46.687-77.656C413.766,1038.547,410.49,1036.389,405.865,1036.179
				L405.865,1036.179z M155.27,1132.122h153.5l-76.75,76.75L155.27,1132.122z"/>
			<g>
				<path style="fill:#EE746C;" d="M75.311,1052.146h313.438l-64,64H139.311C139.311,1116.146,75.311,1052.146,75.311,1052.146z"/>
				<path style="fill:#EE746C;" d="M57.624,1057.021l156.531,156.531c-11.343,1.584-22.244,4.572-32.437,8.938L42.061,1082.927
					L57.624,1057.021L57.624,1057.021z"/>
				<path style="fill:#EE746C;" d="M406.436,1057.021l15.563,25.906L282.343,1222.49c-10.193-4.367-21.094-7.344-32.437-8.938
					L406.436,1057.021L406.436,1057.021z"/>
				<path style="fill:#EE746C;" d="M33.593,1097.115l133.219,133.094c-8.609,5.117-16.594,11.172-23.75,18.094
					c-0.365-0.689-0.828-1.32-1.375-1.875L18.124,1122.896L33.593,1097.115L33.593,1097.115z"/>
				<path style="fill:#EE746C;" d="M430.468,1097.115l15.469,25.781l-123.563,123.531c-0.547,0.555-1.01,1.186-1.375,1.875
					c-7.156-6.924-15.141-12.977-23.75-18.094L430.468,1097.115L430.468,1097.115z"/>
			</g>
			<path style="fill:#3CDEF6;" d="M232.03,1240.136c0.028,0,0.057,0,0.085,0c55.264,0,99.871,44.68,99.871,99.953
				c0,55.305-44.651,100.066-99.955,100.066c-55.303,0-99.955-44.764-99.955-100.066c0-55.303,44.651-99.953,99.955-99.953H232.03z"
				/>
		</g>
		<path style="fill:#FAEADF;" d="M232.03,1266.933c40.544,0,73.286,32.621,73.286,73.164c0,40.545-32.741,73.287-73.286,73.285
			c-40.544,0-73.286-32.74-73.286-73.285C158.744,1299.552,191.486,1266.933,232.03,1266.933z"/>
		<path style="fill:#EBFEFF;" d="M232.03,1279.671c33.492,0,60.538,26.945,60.538,60.438c0,33.49-27.046,60.537-60.538,60.535
			c-33.492,0-60.538-27.045-60.538-60.535C171.492,1306.616,198.538,1279.671,232.03,1279.671z"/>
		<path style="fill:#5A3392;" d="M231.321,1292.027c-3.015,0.191-5.665,2.066-6.85,4.846l-9.803,23.268l-27.283,2.715
			c-4.397,0.438-7.607,4.357-7.169,8.754c0.211,2.123,1.261,4.072,2.917,5.418l19.843,16.064l-5.551,25.512
			c-0.975,4.311,1.728,8.594,6.037,9.57c2.013,0.455,4.124,0.115,5.892-0.949l22.323-13.465l23.858,13.229
			c3.884,2.107,8.741,0.666,10.847-3.219c0.955-1.762,1.215-3.816,0.728-5.76l-6.142-24.094l20.197-17.48
			c3.352-2.879,3.735-7.932,0.855-11.283c-1.409-1.639-3.422-2.639-5.58-2.771l-26.221-1.773l-11.102-23.977
			c-1.396-3-4.494-4.832-7.795-4.607L231.321,1292.027z"/>
		<path style="fill:#C1EAED;" d="M232.148,1319.665l5.551,11.928c1.234,2.65,3.815,4.416,6.732,4.607l11.575,0.832l-9.331,8.031
			c-2.28,1.992-3.24,5.1-2.481,8.031l2.834,10.986l-11.693-6.496c-2.481-1.346-5.489-1.285-7.913,0.16l-10.512,6.262l2.716-12.285
			c0.655-2.938-0.394-5.996-2.716-7.912l-8.622-6.969l12.756-1.297c2.884-0.318,5.369-2.172,6.496-4.846l4.606-10.984
			L232.148,1319.665z"/>
		<g>
			<path style="fill:#FB9761;" d="M102.491,1063.245h259.078l-52.9,52.9H155.392
				C155.392,1116.146,102.491,1063.245,102.491,1063.245z"/>
			<path style="fill:#FB9761;" d="M64.853,1065.507l140.477,140.477c-10.18,1.424-19.963,4.102-29.111,8.021l-125.333-125.25
				L64.853,1065.507z"/>
			<path style="fill:#FB9761;" d="M398.769,1066.021l13.87,23.088L288.174,1213.49c-9.084-3.889-18.799-6.545-28.909-7.965
				L398.769,1066.021z"/>
			<path style="fill:#FB9761;" d="M40.228,1105.634l118.205,118.094c-7.639,4.535-14.724,9.912-21.073,16.057
				c-0.324-0.611-0.735-1.172-1.22-1.664L26.502,1128.511l13.725-22.875L40.228,1105.634z"/>
			<path style="fill:#FB9761;" d="M423.34,1106.265l13.596,22.66l-108.604,108.576c-0.481,0.486-0.888,1.041-1.209,1.645
				c-6.29-6.084-13.308-11.404-20.875-15.902l117.091-116.982L423.34,1106.265z"/>
		</g>
		<path style="fill:#ACF0F2;" d="M232.148,1326.915l3.739,8.035c0.831,1.785,2.57,2.973,4.534,3.102l7.796,0.545l-6.284,5.406
			c-1.534,1.342-2.181,3.434-1.671,5.406l1.909,7.396l-7.875-4.377c-1.652-0.939-3.678-0.939-5.33,0l-7.08,4.215l1.829-8.273
			c0.44-1.979-0.267-4.035-1.829-5.326l-5.807-4.693l8.591-0.881c1.943-0.215,3.617-1.465,4.375-3.266l3.102-7.398L232.148,1326.915
			z"/>
		<g>
			<path style="fill:#5A3392;" d="M224.864,1211.812c-45.281,2.563-87.368,29.076-108.281,71.846
				c-27.885,57.025-9.861,126.014,42.344,162.125s123.132,28.645,166.656-17.563c3.029-3.219,2.875-8.283-0.344-11.313
				s-8.284-2.875-11.313,0.344c-38.179,40.533-100.112,47.051-145.906,15.375c-45.794-31.678-61.523-91.916-37.063-141.938
				s81.659-74.598,134.781-57.906s86.015,69.57,77.469,124.594c-0.685,4.365,2.299,8.461,6.665,9.146
				c4.366,0.684,8.461-2.299,9.146-6.666c0.001-0.004,0.001-0.008,0.002-0.012c9.743-62.727-27.91-123.285-88.469-142.313
				C255.412,1212.775,239.958,1210.96,224.864,1211.812z"/>
			<path style="fill:#5A3392;" d="M344.271,1373.218c-3.204,0.209-5.972,2.313-7.031,5.344c-2.694,7.369-6.173,14.447-10.344,21.094
				c-2.347,3.746-1.214,8.684,2.531,11.031s8.684,1.215,11.031-2.531c4.766-7.596,8.703-15.672,11.781-24.094
				c1.58-4.127-0.485-8.752-4.612-10.332c-1.069-0.41-2.214-0.584-3.357-0.514V1373.218z"/>
			<path style="fill:#5A3392;" d="M253.755,1254.822c-30.303-7.686-63.498,1.152-85.941,25.104
				c-3.026,3.227-2.865,8.293,0.361,11.32c3.226,3.025,8.294,2.865,11.32-0.361l0,0c24.558-26.209,64.488-30.342,93.888-9.711
				c29.4,20.633,39.119,59.605,22.819,91.613c-16.299,32.006-53.53,47.059-87.508,35.416c-33.978-11.643-54.14-46.361-47.384-81.637
				c0.838-4.34-2-8.537-6.34-9.375c-4.34-0.838-8.537,2-9.375,6.34c-0.001,0.006-0.002,0.012-0.003,0.018
				c-8.232,42.984,16.505,85.607,57.909,99.795c41.403,14.188,87.084-4.318,106.946-43.318c19.862-39,7.971-86.816-27.854-111.959
				C273.637,1261.779,263.856,1257.382,253.755,1254.822L253.755,1254.822z"/>
		</g>
	</g>
	<path style="fill:#5A3392;" d="M168.467,1305.948c-1.311,4.219-5.794,6.578-10.013,5.267l0,0c-4.22-1.311-6.577-5.794-5.267-10.013
		l0,0c1.311-4.219,5.794-6.577,10.013-5.267l0,0C167.42,1297.246,169.778,1301.729,168.467,1305.948L168.467,1305.948z"/>
</g>
</svg>